<!-- Gnu Emacs Icon
   Copyright (C) 2008-2017 Free Software Foundation, Inc.

   Author: Nicolas Petton <nicolas@petton.fr>

   This file is part of GNU Emacs.

   GNU Emacs is free software: you can redistribute it and/or modify
   it under the terms of the GNU General Public License as published by
   the Free Software Foundation; either version 3 of the License, or
   (at your option) any later version.

   GNU Emacs is distributed in the hope that it will be useful,
   but WITHOUT ANY WARRANTY; without even the implied warranty of
   MERCHANTABILITY or FITNESS FOR A PARTICULAR PURPOSE.  See the
   GNU General Public License for more details.

   You should have received a copy of the GNU General Public License
   along with GNU Emacs.  If not, see <http://www.gnu.org/licenses/>.

-->
<svg xmlns="http://www.w3.org/2000/svg" viewBox="0 0 16 16" height="16" width="16" fill="black">
  <path d="m 5.389231,14.91879 c 0,0 0.7827089,0.05537 1.789629,-0.03337 0.4077771,-0.03594 1.9559969,-0.188011 3.113503,-0.44186 0,0 1.411279,-0.302032 2.166297,-0.580269 0.790005,-0.291134 1.219897,-0.538225 1.413397,-0.888345 -0.0084,-0.07174 0.05958,-0.326129 -0.30474,-0.478935 C 12.635898,12.10534 11.555673,12.176003 9.4181761,12.130684 7.047776,12.049239 6.259238,11.652474 5.839188,11.33292 5.4363875,11.008745 5.6389357,10.111877 7.3648408,9.3218637 8.2342291,8.9011742 11.642329,8.1248292 11.642329,8.1248292 10.494542,7.5574912 8.3542814,6.5601282 7.9143291,6.3447562 7.5284647,6.1558652 6.910966,5.8714482 6.7771142,5.5273422 c -0.1517595,-0.330352 0.358404,-0.614923 0.6433769,-0.696416 0.917782,-0.26473 2.2134103,-0.429269 3.3925829,-0.447741 0.592715,-0.0093 0.688923,-0.04742 0.688923,-0.04742 0.817835,-0.135662 1.35622,-0.695202 1.131906,-1.581349 -0.201374,-0.9045261 -1.263441,-1.4360151 -2.272717,-1.2520191 -0.9504331,0.17327 -3.241224,0.8386841 -3.241224,0.8386841 2.8315872,-0.02451 3.305519,0.02275 3.517184,0.318689 0.125001,0.174772 -0.0568,0.414411 -0.8119739,0.537747 -0.8221447,0.134274 -2.5311572,0.295976 -2.5311572,0.295976 -1.6394872,0.09737 -2.7943402,0.103883 -3.1407092,0.837219 -0.2262851,0.479097 0.2413099,0.902654 0.4462572,1.16778 0.8660693,0.963156 2.1170513,1.482612 2.9222876,1.865143 0.3029757,0.143929 1.1919412,0.415735 1.1919412,0.415735 -2.6123288,-0.143681 -4.4967661,0.658473 -5.6021626,1.5820441 -1.2502404,1.1564227 -0.6971713,2.5348197 1.8642257,3.3835407 1.5128643,0.501289 2.2631482,0.737046 4.5198131,0.533834 1.3291991,-0.07164 1.5387351,-0.02901 1.5519871,0.08006 0.01866,0.153556 -1.4763592,0.534996 -1.884513,0.652726 -1.0383497,0.299509 -3.7602859,0.904283 -3.773911,0.907215 z" />
</svg>
