<?xml version="1.0" encoding="UTF-8"?>
<!-- Gnu Emacs Icon
   Copyright (C) 2008-2017 Free Software Foundation, Inc.

   Author: Nicolas Petton <nicolas@petton.fr>

   This file is part of GNU Emacs.

   GNU Emacs is free software: you can redistribute it and/or modify
   it under the terms of the GNU General Public License as published by
   the Free Software Foundation; either version 3 of the License, or
   (at your option) any later version.

   GNU Emacs is distributed in the hope that it will be useful,
   but WITHOUT ANY WARRANTY; without even the implied warranty of
   MERCHANTABILITY or FITNESS FOR A PARTICULAR PURPOSE.  See the
   GNU General Public License for more details.

   You should have received a copy of the GNU General Public License
   along with GNU Emacs.  If not, see <http://www.gnu.org/licenses/>.

-->
<svg width="16" height="16" fill="#15141a" opacity=".72" version="1.1" viewBox="0 0 16 16" xmlns="http://www.w3.org/2000/svg">
 <path d="m5.2182 14.718s0.78271 0.05537 1.7896-0.03337c0.40778-0.03594 1.956-0.18801 3.1135-0.44186 0 0 1.4113-0.30203 2.1663-0.58027 0.79-0.29113 1.2199-0.53822 1.4134-0.88834-0.0084-0.07174 0.05958-0.32613-0.30474-0.47894-0.93142-0.39067-2.0116-0.32001-4.1491-0.36533-2.3704-0.081445-3.1589-0.47821-3.579-0.79776-0.4028-0.32418-0.20025-1.221 1.5257-2.0111 0.86939-0.42069 4.2775-1.197 4.2775-1.197-1.1478-0.56734-3.288-1.5647-3.728-1.7801-0.38586-0.18889-1.0034-0.47331-1.1372-0.81741-0.15176-0.33035 0.3584-0.61492 0.64338-0.69642 0.91778-0.26473 2.2134-0.42927 3.3926-0.44774 0.59272-0.0093 0.68892-0.04742 0.68892-0.04742 0.81784-0.13566 1.3562-0.6952 1.1319-1.5813-0.20137-0.90453-1.2634-1.436-2.2727-1.252-0.95043 0.17327-3.2412 0.83868-3.2412 0.83868 2.8316-0.02451 3.3055 0.02275 3.5172 0.31869 0.125 0.17477-0.0568 0.41441-0.81197 0.53775-0.82214 0.13427-2.5312 0.29598-2.5312 0.29598-1.6395 0.09737-2.7943 0.10388-3.1407 0.83722-0.22629 0.4791 0.24131 0.90265 0.44626 1.1678 0.86607 0.96316 2.1171 1.4826 2.9223 1.8651 0.30298 0.14393 1.1919 0.41574 1.1919 0.41574-2.6123-0.14368-4.4968 0.65847-5.6022 1.582-1.2502 1.1564-0.69717 2.5348 1.8642 3.3835 1.5129 0.50129 2.2631 0.73705 4.5198 0.53383 1.3292-0.07164 1.5387-0.02901 1.552 0.08006 0.01866 0.15356-1.4764 0.535-1.8845 0.65273-1.0383 0.29951-3.7603 0.90428-3.7739 0.90722z"/>
</svg>
